<svg xmlns="http://www.w3.org/2000/svg" viewBox="0 0 200 200">
  <rect width="200" height="200" rx="44" fill="#5b6cff"/>
  <!-- S mark with architectural/arch motif -->
  <path fill="#fff" fill-rule="evenodd" d="
    M100 38
    C72 38 50 58 50 82
    C50 96 57 108 68 116
    L68 120
    C56 128 50 140 50 154
    C50 170 64 178 80 178
    L120 178
    C136 178 150 170 150 154
    L136 154
    C136 162 129 166 120 166
    L80 166
    C71 166 64 162 64 154
    C64 144 72 136 82 130
    L100 130
    L118 130
    C130 124 136 112 136 100
    C136 86 128 76 118 72
    L118 68
    C130 62 136 52 136 38
    L100 38Z
    M100 50
    L120 50
    C128 50 136 58 136 66
    C136 76 128 84 118 88
    L100 88
    L82 88
    C70 84 64 76 64 66
    C64 58 72 50 80 50
    L100 50Z
    M100 100
    L116 100
    C124 104 130 112 130 120
    C130 128 122 136 114 136
    L100 136
    L86 136
    C78 132 70 124 70 116
    C70 108 76 100 84 100
    L100 100Z
  "/>
</svg>
