<svg xmlns="http://www.w3.org/2000/svg" viewBox="0 0 200 200">
  <rect width="200" height="200" rx="44" fill="#5b6cff"/>
  <path fill="#fff" fill-rule="evenodd" d="
    M65 82 C65 62 80 48 100 48 C120 48 135 62 135 78
    L121 78 C121 70 112 62 100 62 C88 62 79 70 79 80
    C79 88 84 94 92 97 L116 105
    C128 110 135 120 135 132 C135 152 120 158 100 158
    C80 158 65 148 65 128
    L79 128 C79 138 88 146 100 146 C112 146 121 140 121 130
    C121 122 116 116 108 113 L84 105
    C72 100 65 92 65 82 Z
  "/>
</svg>
