<svg xmlns="http://www.w3.org/2000/svg" viewBox="0 0 200 200">
  <rect width="200" height="200" rx="44" fill="#5b6cff"/>
  <!-- Geometric S from two arcs + connecting bar -->
  <path fill="#fff" fill-rule="evenodd"
    d="M100 36
       C75 36 56 52 56 72
       C56 86 64 97 78 103
       L78 97
       C68 92 62 83 62 72
       C62 56 79 42 100 42
       C121 42 138 56 138 72
       C138 84 130 93 118 98
       L94 106
       C78 112 62 123 62 140
       C62 160 79 164 100 164
       C121 164 144 154 144 136
       L138 136
       C138 150 121 158 100 158
       C79 158 68 152 68 140
       C68 127 82 118 96 112
       L120 104
       C134 98 144 87 144 72
       C144 52 125 36 100 36Z"/>
</svg>
